# xmcd
#
# Track frame offsets:
#  150
#  18571
#  34184
#  49011
#  81347
#
# Disc length: 1646 seconds
#
# Revision: 0
# Processed by: cddbd v1.5.1PL2 Copyright (c) Steve Scherf et al.
# Submitted via: Collectorz.com_Music_Collector 6.11
#
DISCID=38066c05
DTITLE=The Josh Owen Band - 6 pm
DYEAR=2005
DGENRE=Australian Blues
TTITLE0=Save Me Save Me
TTITLE1=Can I Get a Witness
TTITLE2=Southside Of The River
TTITLE3=6 pm
TTITLE4=Data track
EXTD=
EXTT0=
EXTT1=
EXTT2=
EXTT3=
EXTT4=
PLAYORDER=
